<mxfile host="app.diagrams.net" agent="Mozilla/5.0 (Macintosh; Intel Mac OS X 10_15_7) AppleWebKit/537.36 (KHTML, like Gecko) Chrome/128.0.0.0 Safari/537.36" version="24.7.10">
  <diagram name="第 1 页" id="YTiCYETZkIh7PSyoFml1">
    <mxGraphModel dx="954" dy="605" grid="1" gridSize="10" guides="1" tooltips="1" connect="1" arrows="1" fold="1" page="1" pageScale="1" pageWidth="827" pageHeight="1169" math="0" shadow="0">
      <root>
        <mxCell id="0" />
        <mxCell id="1" parent="0" />
        <mxCell id="hQr3ptfqvFpflORHhcJr-1" value="供应链" style="whiteSpace=wrap;html=1;" parent="1" vertex="1">
          <mxGeometry x="160" y="30" width="120" height="60" as="geometry" />
        </mxCell>
        <mxCell id="hQr3ptfqvFpflORHhcJr-2" value="流水线+垂直整合" style="whiteSpace=wrap;html=1;" parent="1" vertex="1">
          <mxGeometry x="160" y="130" width="120" height="60" as="geometry" />
        </mxCell>
        <mxCell id="hQr3ptfqvFpflORHhcJr-3" value="生产与需求的关系&lt;div&gt;类似餐厅备菜和特价&lt;/div&gt;" style="whiteSpace=wrap;html=1;" parent="1" vertex="1">
          <mxGeometry x="330" y="130" width="120" height="60" as="geometry" />
        </mxCell>
        <mxCell id="_oYzTV_O4SohcgStQBXP-1" value="system thinking" style="whiteSpace=wrap;html=1;" vertex="1" parent="1">
          <mxGeometry x="670" y="30" width="120" height="60" as="geometry" />
        </mxCell>
      </root>
    </mxGraphModel>
  </diagram>
</mxfile>
